<svg id="Camada_1" data-name="Camada 1" xmlns="http://www.w3.org/2000/svg" xmlns:xlink="http://www.w3.org/1999/xlink" viewBox="0 0 371 112.49"><defs><style>.cls-1,.cls-2{opacity:0.5;isolation:isolate;}.cls-1{fill:url(#Gradiente_sem_nome_2);}.cls-2{fill:url(#Gradiente_sem_nome_2-2);}.cls-3{fill:#fff;}</style><linearGradient id="Gradiente_sem_nome_2" x1="77.36" y1="128.33" x2="32.21" y2="127.65" gradientTransform="matrix(1, 0, 0, -1, 0, 234)" gradientUnits="userSpaceOnUse"><stop offset="0" stop-color="#fff"/><stop offset="1" stop-color="#fff"/></linearGradient><linearGradient id="Gradiente_sem_nome_2-2" x1="80.95" y1="158.68" x2="21.95" y2="157.79" xlink:href="#Gradiente_sem_nome_2"/></defs><path class="cls-1" d="M77.5,114.66s-22.19-5.92-42.33-2.5l-3.1-14.63s27.24-1.63,43,2.24Z" transform="translate(-11 -24.17)"/><path class="cls-2" d="M81.12,87.08s-29-7.72-55.31-3.26l-4-19.15S57.36,62.53,78,67.61l3.12,19.47Z" transform="translate(-11 -24.17)"/><path class="cls-3" d="M25.38,56.67l45.7,20.82c7.81,4,10,9.59,10,9.59l-.07-5L81,74.49l0-1A24.39,24.39,0,0,0,66.41,51.54L24.44,33C13.26,27.61,11,24.17,11,24.17l.05,2.93.08,5.28,0,2.47A24.35,24.35,0,0,0,25.38,56.67Z" transform="translate(-11 -24.17)"/><path class="cls-3" d="M33.22,90.49,69.53,107c6.22,3.21,8,7.62,8,7.62l0-4-.1-6v-.79A19.35,19.35,0,0,0,65.86,86.44L32.51,71.73c-8.91-4.28-10.71-7-10.71-7l0,2.34.05,4.18,0,2a19.39,19.39,0,0,0,3.15,10.29,19.17,19.17,0,0,0,8.17,7Z" transform="translate(-11 -24.17)"/><path class="cls-3" d="M40.72,117.64l27.39,13c4.7,2.52,6,6,6,6l-.05-3.16L74,128.78v-.64a15.29,15.29,0,0,0-8.7-13.71L40.16,102.86c-6.72-3.37-8.06-5.54-8.06-5.54l0,1.84.05,3.29,0,1.53a15.24,15.24,0,0,0,8.52,13.66Z" transform="translate(-11 -24.17)"/><path class="cls-3" d="M120.26,62.39H97.47c-.62,0-.83.21-.83.84V97.66c0,.63.21.84.83.84H120.3c.62,0,.75-.21.75-.84V95.77c0-.63-.17-.84-.75-.84H100.68V82.06h18.66c.62,0,.83-.21.83-.84V79.33c0-.63-.21-.84-.83-.84H100.68V66h19.58c.58,0,.75-.21.75-.84V63.23C121.05,62.6,120.84,62.39,120.26,62.39Zm49.81,0h-2.46c-.62,0-.83.17-.83.84V90.74L142.87,62.1a.8.8,0,0,0-.67-.38H142c-.37,0-.45,0-.45.42v2.77l4,5,23.83,28.81a1.08,1.08,0,0,0,.75.42h.25c.29,0,.42,0,.42-.42V63.19C170.87,62.56,170.7,62.39,170.07,62.39ZM206.8,78.54c-5.64-.72-10.4-1.81-10.4-6,0-2.69,1.72-7,9.48-7a18,18,0,0,1,10.26,3.4.8.8,0,0,0,.46.21c.25,0,.46-.21.67-.59l1-1.59c.2-.51.29-.84-.25-1.14-3.88-2.39-7.35-3.9-12.6-3.9-9.94,0-12.94,6.8-12.94,10.78,0,6.84,6.51,8.56,12.1,9.31,6.72.92,10.56,2.31,10.56,6.59,0,5.37-4.93,6.91-9.64,6.91A20.77,20.77,0,0,1,194.07,92a1,1,0,0,0-.58-.21c-.26,0-.42.17-.63.5l-1,1.63c-.29.59-.29.85.21,1.14A23.24,23.24,0,0,0,206,99c8.8,0,13.06-5.15,13.06-10.65C219.06,81.47,213.43,79.41,206.8,78.54Zm36.55-16.15h-2.47c-.62,0-.83.21-.83.84V97.66c0,.63.21.84.83.84h2.47c.62,0,.75-.21.75-.84V63.23C244.14,62.6,244,62.39,243.35,62.39Zm80.36,0h-2.46c-.63,0-.83.21-.83.84V97.66c0,.63.2.84.83.84h2.46c.63,0,.75-.21.75-.84V63.23C324.46,62.6,324.29,62.39,323.71,62.39Zm39.93-.67A18.71,18.71,0,1,0,382,80.43,18.62,18.62,0,0,0,363.64,61.72Zm0,33.8c-8,0-14.27-7.38-14.27-15.1s6.26-15.09,14.27-15.09,14.27,7.29,14.27,15.1-6.18,15.1-14.27,15.1Zm-222.1,2.22c0,.55.16.72.71.72h2c.54,0,.71-.17.71-.72V74.17l-3.47-4.27V97.75Zm125.92.63h2.47c.62,0,.83-.16.83-.84V70l23.91,28.65a.79.79,0,0,0,.67.37h.25c.37,0,.46,0,.46-.42V95.86l-4.05-5L268.13,62.05a1.06,1.06,0,0,0-.75-.41h-.25c-.29,0-.41,0-.41.41V97.58c0,.67.16.79.75.79ZM296.05,63c0-.54-.17-.71-.71-.71h-2c-.54,0-.71.16-.71.71V86.59l3.47,4.28V63Z" transform="translate(-11 -24.17)"/></svg>